<?xml version="1.0" encoding="UTF-8" standalone="no"?>
<!-- Created with Inkscape (http://www.inkscape.org/) -->

<svg
   version="1.1"
   id="svg1"
   width="1500"
   height="1500"
   viewBox="0 0 1500 1500"
   sodipodi:docname="icon.svg"
   inkscape:version="1.4.2 (f4327f4, 2025-05-13)"
   xmlns:inkscape="http://www.inkscape.org/namespaces/inkscape"
   xmlns:sodipodi="http://sodipodi.sourceforge.net/DTD/sodipodi-0.dtd"
   xmlns="http://www.w3.org/2000/svg"
   xmlns:svg="http://www.w3.org/2000/svg">
  <defs
     id="defs1">
    <clipPath
       clipPathUnits="userSpaceOnUse"
       id="clipPath1">
      <rect
         style="fill:#2634e5;stroke-width:0.97714"
         id="rect2"
         width="444.24179"
         height="164.2906"
         x="-564.5025"
         y="581.58875" />
    </clipPath>
    <clipPath
       clipPathUnits="userSpaceOnUse"
       id="clipPath1-1">
      <rect
         style="fill:#2634e5;stroke-width:0.97714"
         id="rect2-5"
         width="444.24179"
         height="164.2906"
         x="-564.5025"
         y="581.58875" />
    </clipPath>
    <clipPath
       clipPathUnits="userSpaceOnUse"
       id="clipPath1-2">
      <rect
         style="fill:#2634e5;stroke-width:0.97714"
         id="rect2-3"
         width="444.24179"
         height="164.2906"
         x="-564.5025"
         y="581.58875" />
    </clipPath>
    <clipPath
       clipPathUnits="userSpaceOnUse"
       id="clipPath1-1-5">
      <rect
         style="fill:#2634e5;stroke-width:0.97714"
         id="rect2-5-7"
         width="444.24179"
         height="164.2906"
         x="-564.5025"
         y="581.58875" />
    </clipPath>
    <clipPath
       clipPathUnits="userSpaceOnUse"
       id="clipPath4">
      <rect
         style="fill:#2634e5;stroke-width:1.06691"
         id="rect4"
         width="1037.1747"
         height="397.76953"
         x="202.60223"
         y="33.457249" />
    </clipPath>
    <clipPath
       clipPathUnits="userSpaceOnUse"
       id="clipPath6">
      <rect
         style="fill:#2634e5;stroke-width:0.838871"
         id="rect6"
         width="35.315987"
         height="379.18216"
         x="726.76581"
         y="756.50555" />
    </clipPath>
    <clipPath
       clipPathUnits="userSpaceOnUse"
       id="clipPath8">
      <rect
         style="fill:#2634e5"
         id="rect8"
         width="388.47583"
         height="150.55762"
         x="1806.6914"
         y="988.8476" />
    </clipPath>
    <clipPath
       clipPathUnits="userSpaceOnUse"
       id="clipPath8-3">
      <rect
         style="fill:#2634e5"
         id="rect8-8"
         width="388.47583"
         height="150.55762"
         x="1806.6914"
         y="988.8476" />
    </clipPath>
    <clipPath
       clipPathUnits="userSpaceOnUse"
       id="clipPath9">
      <rect
         style="fill:#2634e5"
         id="rect10"
         width="190.98512"
         height="177.04462"
         x="1793.2156"
         y="974.44238" />
    </clipPath>
    <clipPath
       clipPathUnits="userSpaceOnUse"
       id="clipPath6-3">
      <rect
         style="fill:#2634e5;stroke-width:0.838871"
         id="rect6-1"
         width="35.315987"
         height="379.18216"
         x="726.76581"
         y="756.50555" />
    </clipPath>
    <clipPath
       clipPathUnits="userSpaceOnUse"
       id="clipPath6-2">
      <rect
         style="fill:#2634e5;stroke-width:0.838871"
         id="rect6-8"
         width="35.315987"
         height="379.18216"
         x="726.76581"
         y="756.50555" />
    </clipPath>
    <clipPath
       clipPathUnits="userSpaceOnUse"
       id="clipPath6-6">
      <rect
         style="fill:#2634e5;stroke-width:0.838871"
         id="rect6-5"
         width="35.315987"
         height="379.18216"
         x="726.76581"
         y="756.50555" />
    </clipPath>
    <clipPath
       clipPathUnits="userSpaceOnUse"
       id="clipPath6-1">
      <rect
         style="fill:#2634e5;stroke-width:0.838871"
         id="rect6-3"
         width="35.315987"
         height="379.18216"
         x="726.76581"
         y="756.50555" />
    </clipPath>
    <clipPath
       clipPathUnits="userSpaceOnUse"
       id="clipPath6-60">
      <rect
         style="fill:#2634e5;stroke-width:0.838871"
         id="rect6-6"
         width="35.315987"
         height="379.18216"
         x="726.76581"
         y="756.50555" />
    </clipPath>
    <clipPath
       clipPathUnits="userSpaceOnUse"
       id="clipPath6-37">
      <rect
         style="fill:#2634e5;stroke-width:0.838871"
         id="rect6-88"
         width="35.315987"
         height="379.18216"
         x="726.76581"
         y="756.50555" />
    </clipPath>
    <clipPath
       clipPathUnits="userSpaceOnUse"
       id="clipPath6-9">
      <rect
         style="fill:#2634e5;stroke-width:0.838871"
         id="rect6-84"
         width="35.315987"
         height="379.18216"
         x="726.76581"
         y="756.50555" />
    </clipPath>
    <clipPath
       clipPathUnits="userSpaceOnUse"
       id="clipPath6-5">
      <rect
         style="fill:#2634e5;stroke-width:0.838871"
         id="rect6-4"
         width="35.315987"
         height="379.18216"
         x="726.76581"
         y="756.50555" />
    </clipPath>
    <clipPath
       clipPathUnits="userSpaceOnUse"
       id="clipPath6-7">
      <rect
         style="fill:#2634e5;stroke-width:0.838871"
         id="rect6-2"
         width="35.315987"
         height="379.18216"
         x="726.76581"
         y="756.50555" />
    </clipPath>
    <clipPath
       clipPathUnits="userSpaceOnUse"
       id="clipPath6-54">
      <rect
         style="fill:#2634e5;stroke-width:0.838871"
         id="rect6-12"
         width="35.315987"
         height="379.18216"
         x="726.76581"
         y="756.50555" />
    </clipPath>
    <clipPath
       clipPathUnits="userSpaceOnUse"
       id="clipPath6-71">
      <rect
         style="fill:#2634e5;stroke-width:0.838871"
         id="rect6-7"
         width="35.315987"
         height="379.18216"
         x="726.76581"
         y="756.50555" />
    </clipPath>
    <clipPath
       clipPathUnits="userSpaceOnUse"
       id="clipPath6-59">
      <rect
         style="fill:#2634e5;stroke-width:0.838871"
         id="rect6-9"
         width="35.315987"
         height="379.18216"
         x="726.76581"
         y="756.50555" />
    </clipPath>
    <clipPath
       clipPathUnits="userSpaceOnUse"
       id="clipPath6-0">
      <rect
         style="fill:#2634e5;stroke-width:0.838871"
         id="rect6-38"
         width="35.315987"
         height="379.18216"
         x="726.76581"
         y="756.50555" />
    </clipPath>
    <clipPath
       clipPathUnits="userSpaceOnUse"
       id="clipPath6-4">
      <rect
         style="fill:#2634e5;stroke-width:0.838871"
         id="rect6-78"
         width="35.315987"
         height="379.18216"
         x="726.76581"
         y="756.50555" />
    </clipPath>
    <clipPath
       clipPathUnits="userSpaceOnUse"
       id="clipPath6-64">
      <rect
         style="fill:#2634e5;stroke-width:0.838871"
         id="rect6-0"
         width="35.315987"
         height="379.18216"
         x="726.76581"
         y="756.50555" />
    </clipPath>
    <clipPath
       clipPathUnits="userSpaceOnUse"
       id="clipPath6-14">
      <rect
         style="fill:#2634e5;stroke-width:0.838871"
         id="rect6-39"
         width="35.315987"
         height="379.18216"
         x="726.76581"
         y="756.50555" />
    </clipPath>
  </defs>
  <sodipodi:namedview
     id="namedview1"
     pagecolor="#ffffff"
     bordercolor="#000000"
     borderopacity="0.25"
     inkscape:showpageshadow="2"
     inkscape:pageopacity="0.0"
     inkscape:pagecheckerboard="0"
     inkscape:deskcolor="#d1d1d1"
     showguides="true"
     inkscape:zoom="0.538"
     inkscape:cx="607.80669"
     inkscape:cy="651.48699"
     inkscape:window-width="1920"
     inkscape:window-height="1009"
     inkscape:window-x="-8"
     inkscape:window-y="-8"
     inkscape:window-maximized="1"
     inkscape:current-layer="g1" />
  <g
     inkscape:groupmode="layer"
     inkscape:label="Image"
     id="g1">
    <path
       style="display:inline;fill:#000000"
       id="path1"
       d="" />
    <path
       style="display:inline;fill:#2634e5;fill-opacity:1;stroke-width:0.672035"
       d="m 729.45257,1206.3623 c -34.94223,-1.5761 -54.92557,-3.9027 -83.0505,-9.6694 -27.64037,-5.6673 -67.58371,-18.1327 -87.31016,-27.2474 -13.90748,-6.4261 -38.76508,-18.6629 -45.01272,-22.1589 -19.47891,-10.8995 -55.73327,-35.7869 -68.89704,-47.2953 -2.03294,-1.7774 -7.62757,-6.6783 -12.4326,-10.8912 -10.63788,-9.3266 -36.25007,-34.8469 -41.33027,-41.1817 -2.03293,-2.5349 -5.37069,-6.6156 -7.41723,-9.068 -102.323,-122.61238 -134.5286,-284.67579 -87.15364,-438.57186 l 3.51035,-11.40333 0.37466,89.69533 0.37465,89.69534 1.13531,11.08856 c 21.823,213.12998 182.81565,376.80906 392.93545,399.49196 238.84732,25.7842 455.32647,-145.4168 485.17757,-383.69919 2.9095,-23.2244 2.9253,-23.77551 3.3317,-116.2619 l 0.3957,-90.05265 3.8235,12.4326 c 32.8962,106.96325 27.358,218.54255 -15.9272,320.89643 -11.5282,27.25998 -34.8378,69.6205 -45.9374,83.48221 -1.118,1.396 -5.8686,7.6792 -10.5571,13.9627 -8.2259,11.0243 -14.2749,18.6 -24.0757,30.152 -6.3358,7.4679 -29.8475,30.7344 -40.0747,39.6571 -4.6083,4.0204 -9.4371,8.2731 -10.7309,9.4504 -8.1521,7.4191 -27.3188,21.3585 -45.69819,33.235 -5.3595,3.4633 -10.95416,7.1196 -12.43265,8.1251 -6.13547,4.1727 -47.21424,25.5479 -49.09792,25.5479 -0.14898,0 -2.92269,1.2464 -6.16402,2.77 -51.84989,24.3713 -136.59388,40.5773 -197.75895,37.8182 z m -10.0805,-57.1385 C 527.76193,1139.6783 364.08401,990.67917 336.68825,800.85948 332.05353,768.74604 331.62246,753.76847 331.61472,624.59516 V 517.88639 l 2.9571,-5.21144 c 5.07099,-8.93693 12.45527,-20.9874 17.44971,-28.47665 l 4.7945,-7.18929 0.36865,142.60425 0.36866,142.60424 1.16531,11.76065 c 9.13459,92.18629 47.20159,173.81672 110.63847,237.25255 69.41628,69.4149 156.65441,107.874 256.23912,112.9638 l 16.63144,0.8501 16.63144,-0.8501 c 58.10807,-2.9699 106.17753,-15.4882 157.08925,-40.9095 115.41293,-57.6277 196.03093,-174.242 208.95233,-302.25054 0.5597,-5.54421 1.2107,-11.44134 1.4467,-13.10469 0.2361,-1.66321 0.6233,-67.8922 0.8606,-147.17547 l 0.4312,-144.15128 7.2193,11.24554 c 3.9706,6.18509 9.6409,15.43025 12.6007,20.54499 l 5.3813,9.29944 -0.016,107.14144 c -0.015,102.06099 -0.4215,132.46453 -2.0108,150.28663 -19.7168,221.07911 -208.97313,385.18514 -431.43576,374.10274 z m 5.04032,-56.7003 C 542.78658,1082.4961 399.79295,940.21012 389.42436,759.19345 c -0.41387,-7.22583 -0.67742,-71.89805 -0.68342,-167.71953 l -0.0133,-155.9589 6.19616,-6.98256 c 3.40805,-3.84045 8.99182,-9.86762 12.40867,-13.39371 l 6.21243,-6.4113 0.028,164.64842 c 0.032,188.96888 0.0947,191.68696 5.11621,221.77134 21.67442,129.8486 122.59527,236.35559 250.85429,264.73899 192.13605,42.5192 376.672,-88.81678 398.9155,-283.91246 2.1227,-18.61703 2.3542,-38.2065 2.3921,-202.26189 l 0.039,-164.9844 6.5291,6.7254 c 3.591,3.69895 9.1752,9.70051 12.4094,13.33677 l 5.8803,6.61122 V 591.5102 c 0,179.08805 0,179.25343 -5.7908,211.3654 -31.3479,173.96557 -189.58441,299.3607 -365.50808,289.6479 z m 10.41647,-56.2608 C 595.01166,1033.0916 475.54779,930.872 450.28862,792.79511 c -4.98443,-27.24692 -5.07526,-31.4799 -5.06206,-235.88409 l 0.0133,-177.08102 6.51293,-5.04031 c 3.58197,-2.77211 9.30904,-7.07885 12.72656,-9.5706 l 6.2139,-4.53028 0.22968,200.42838 c 0.17392,151.8418 0.42707,201.97593 1.04394,206.81258 6.28816,49.30013 20.40785,87.44354 46.51492,125.6571 71.92726,105.28191 209.72153,146.03713 327.90645,96.98453 91.14155,-37.82811 151.84387,-118.36659 165.78036,-219.95341 l 1.1525,-8.40049 0.2158,-200.76433 0.2159,-200.7645 6.2687,4.56056 c 3.4479,2.50829 9.177,6.81503 12.7313,9.5706 l 6.4625,5.01017 v 177.7531 c 0,205.13764 -0.065,208.04952 -5.0696,235.21174 C 1007.6223,936.73685 881.187,1039.5822 734.83073,1036.2627 Z M 721.85235,978.93439 C 604.70523,968.45763 512.86693,876.10636 502.9977,758.85734 c -0.43775,-5.2009 -0.68129,-80.99796 -0.68583,-213.46876 l -0.0133,-205.40455 3.19224,-2.01452 c 3.64439,-2.29995 20.66956,-11.56618 21.25108,-11.56618 0.21141,0 0.4859,96.84847 0.61007,215.21895 l 0.22594,215.21893 1.14611,8.37487 C 544.43128,879.99389 640.995,960.78512 754.47945,954.0972 859.39497,947.91424 941.07529,871.13366 955.74422,764.90572 l 1.11356,-8.06451 0.21994,-215.21893 c 0.12137,-118.37048 0.41387,-215.21895 0.65075,-215.21895 0.49349,0 7.37454,3.69987 17.87371,9.61047 l 7.2477,4.08014 -0.25755,206.35766 c -0.26382,211.35646 -0.24128,209.56107 -2.85653,227.86253 -14.18811,99.29047 -91.15208,180.65736 -189.69805,200.55066 -19.99427,4.03626 -49.1254,5.77469 -68.19191,4.0696 z m 10.28843,-56.5505 C 646.5037,918.07688 575.57157,854.59892 561.42694,769.60992 c -2.6482,-15.91227 -2.73649,-24.45253 -2.53243,-245.2034 l 0.1974,-213.6179 3.36017,-1.34137 c 1.84807,-0.73771 7.51832,-2.94497 12.60065,-4.90494 l 9.24049,-3.5637 v 224.57122 c 0,146.66357 0.24088,226.66934 0.68409,230.61943 8.00182,71.33026 58.23745,125.39742 129.34898,139.215 l 9.40854,1.8282 18.14487,0.0307 18.145,0.0307 9.74439,-1.83113 c 73.42948,-13.79798 124.58488,-71.21009 130.3525,-146.29558 0.45789,-5.96022 0.69423,-83.74006 0.69423,-228.36884 V 301.44743 l 1.5121,0.46188 c 0.8316,0.25409 6.35074,2.34957 12.26467,4.65686 l 10.75259,4.19497 0.2014,214.97568 c 0.20833,222.42449 0.15498,227.53629 -2.54737,243.91552 -15.23125,92.32139 -96.64575,157.47017 -190.8639,152.73155 z m -3.36016,-56.77483 c -55.10936,-8.3566 -94.01382,-41.27951 -108.48842,-91.80843 -5.20411,-18.16688 -5.05606,-10.5728 -5.07153,-260.08441 l -0.0147,-222.29207 1.51196,-0.56952 c 0.83174,-0.31317 6.04838,-1.68655 11.59259,-3.05193 5.54435,-1.36525 10.60601,-2.63273 11.24822,-2.81652 l 1.16758,-0.33424 0.17646,233.74261 0.17645,233.74246 1.53837,7.23476 c 12.94997,60.90392 73.46657,95.71705 132.53242,76.24147 32.7267,-10.79072 58.77056,-39.9488 66.15751,-74.06769 2.3545,-10.87516 2.38998,-14.52675 2.38998,-246.49623 V 284.6466 l 1.17598,0.33691 c 0.64688,0.18526 5.71227,1.45394 11.25662,2.81919 5.54421,1.36538 10.76845,2.74156 11.6094,3.05833 l 1.5289,0.57593 -0.20567,229.67808 -0.20567,229.67793 -1.19492,7.05631 c -9.70211,57.29367 -51.76894,99.01345 -108.05508,107.16331 -6.48145,0.93858 -26.072,1.3175 -30.82742,0.59647 z m 1.42566,-57.06347 c -27.26838,-4.97669 -48.299,-24.32302 -55.75357,-51.28837 l -1.78698,-6.46425 -0.17539,-235.95932 -0.17553,-235.95947 8.2399,-1.07622 c 4.53188,-0.59193 10.12998,-1.27748 12.44007,-1.52356 l 4.20017,-0.44735 0.0133,234.12287 0.0133,234.12272 1.3327,5.37629 c 5.57129,22.47535 22.73357,35.3745 45.82192,34.43953 21.03608,-0.85188 36.34576,-13.54963 41.52412,-34.43953 l 1.33257,-5.37629 0.0133,-234.12272 0.0133,-234.12287 4.20031,0.42934 c 2.31009,0.23608 7.90765,0.9267 12.43913,1.53464 l 8.23896,1.10529 -0.17459,235.9484 -0.17459,235.94825 -1.78698,6.46425 c -9.78587,35.39851 -44.51643,57.72488 -79.78356,51.28837 z m -0.75371,-301.70108 v -230.8438 h 12.76871 12.76858 v 230.8438 151.14805 79.69572 h -12.76858 -12.76871 z"
       id="path2-8-8-3"
       clip-path="none"
       sodipodi:nodetypes="ssscscscscccsssscsssssscssscscsccsscccssscscssccsscsccccscccccscssccsscscccssccsccscssscccsscscsscsccssccsssccsscscscccsscsccscscccssscsscsccccsccccscccsssscssscccsscccscccsscccssscccsscccscccccccccccc" />
  </g>
</svg>
